0
SECTION
2
HEADER
9
$ACADVER
1
AC1009
0
ENDSEC
0
SECTION
2
TABLES
0
TABLE
2
LAYER
70
4
0
LAYER
2
SHEET
70
0
62
7
6
CONTINUOUS
0
LAYER
2
TRIM
70
0
62
8
6
CONTINUOUS
0
LAYER
2
PANELS
70
0
62
3
6
CONTINUOUS
0
LAYER
2
LABELS
70
0
62
2
6
CONTINUOUS
0
ENDTAB
0
ENDSEC
0
SECTION
2
ENTITIES
0
LINE
8
SHEET
10
0.0000
20
0.0000
11
2440.0000
21
0.0000
0
LINE
8
SHEET
10
2440.0000
20
0.0000
11
2440.0000
21
1220.0000
0
LINE
8
SHEET
10
2440.0000
20
1220.0000
11
0.0000
21
1220.0000
0
LINE
8
SHEET
10
0.0000
20
1220.0000
11
0.0000
21
0.0000
0
LINE
8
TRIM
10
5.0000
20
5.0000
11
2435.0000
21
5.0000
0
LINE
8
TRIM
10
2435.0000
20
5.0000
11
2435.0000
21
1215.0000
0
LINE
8
TRIM
10
2435.0000
20
1215.0000
11
5.0000
21
1215.0000
0
LINE
8
TRIM
10
5.0000
20
1215.0000
11
5.0000
21
5.0000
0
TEXT
8
LABELS
10
20.0000
20
1260.0000
40
30.0000
1
Sheet 1  18mm Melamine  yield 49%
0
LINE
8
PANELS
10
5.0000
20
1065.0000
11
361.0000
21
1065.0000
0
LINE
8
PANELS
10
361.0000
20
1065.0000
11
361.0000
21
1215.0000
0
LINE
8
PANELS
10
361.0000
20
1215.0000
11
5.0000
21
1215.0000
0
LINE
8
PANELS
10
5.0000
20
1215.0000
11
5.0000
21
1065.0000
0
TEXT
8
LABELS
10
13.0000
20
1095.0000
40
18.7500
1
Drawer front 1 356x150
0
LINE
8
PANELS
10
364.2000
20
1065.0000
11
720.2000
21
1065.0000
0
LINE
8
PANELS
10
720.2000
20
1065.0000
11
720.2000
21
1215.0000
0
LINE
8
PANELS
10
720.2000
20
1215.0000
11
364.2000
21
1215.0000
0
LINE
8
PANELS
10
364.2000
20
1215.0000
11
364.2000
21
1065.0000
0
TEXT
8
LABELS
10
372.2000
20
1095.0000
40
18.7500
1
Drawer front 2 356x150
0
LINE
8
PANELS
10
723.4000
20
1065.0000
11
1079.4000
21
1065.0000
0
LINE
8
PANELS
10
1079.4000
20
1065.0000
11
1079.4000
21
1215.0000
0
LINE
8
PANELS
10
1079.4000
20
1215.0000
11
723.4000
21
1215.0000
0
LINE
8
PANELS
10
723.4000
20
1215.0000
11
723.4000
21
1065.0000
0
TEXT
8
LABELS
10
731.4000
20
1095.0000
40
18.7500
1
Drawer front 3 356x150
0
LINE
8
PANELS
10
1082.6000
20
495.0000
11
1862.6000
21
495.0000
0
LINE
8
PANELS
10
1862.6000
20
495.0000
11
1862.6000
21
1215.0000
0
LINE
8
PANELS
10
1862.6000
20
1215.0000
11
1082.6000
21
1215.0000
0
LINE
8
PANELS
10
1082.6000
20
1215.0000
11
1082.6000
21
495.0000
0
TEXT
8
LABELS
10
1090.6000
20
525.0000
40
20.0000
1
Back 780x720
0
LINE
8
PANELS
10
1865.8000
20
451.0000
11
2425.8000
21
451.0000
0
LINE
8
PANELS
10
2425.8000
20
451.0000
11
2425.8000
21
1215.0000
0
LINE
8
PANELS
10
2425.8000
20
1215.0000
11
1865.8000
21
1215.0000
0
LINE
8
PANELS
10
1865.8000
20
1215.0000
11
1865.8000
21
451.0000
0
TEXT
8
LABELS
10
1873.8000
20
481.0000
40
20.0000
1
Base (R) 560x764
0
LINE
8
PANELS
10
1082.6000
20
107.8000
11
1806.6000
21
107.8000
0
LINE
8
PANELS
10
1806.6000
20
107.8000
11
1806.6000
21
491.8000
0
LINE
8
PANELS
10
1806.6000
20
491.8000
11
1082.6000
21
491.8000
0
LINE
8
PANELS
10
1082.6000
20
491.8000
11
1082.6000
21
107.8000
0
TEXT
8
LABELS
10
1090.6000
20
137.8000
40
20.0000
1
Door right (R) 724x384
0
LINE
8
SHEET
10
2520.0000
20
0.0000
11
4960.0000
21
0.0000
0
LINE
8
SHEET
10
4960.0000
20
0.0000
11
4960.0000
21
1220.0000
0
LINE
8
SHEET
10
4960.0000
20
1220.0000
11
2520.0000
21
1220.0000
0
LINE
8
SHEET
10
2520.0000
20
1220.0000
11
2520.0000
21
0.0000
0
LINE
8
TRIM
10
2525.0000
20
5.0000
11
4955.0000
21
5.0000
0
LINE
8
TRIM
10
4955.0000
20
5.0000
11
4955.0000
21
1215.0000
0
LINE
8
TRIM
10
4955.0000
20
1215.0000
11
2525.0000
21
1215.0000
0
LINE
8
TRIM
10
2525.0000
20
1215.0000
11
2525.0000
21
5.0000
0
TEXT
8
LABELS
10
2540.0000
20
1260.0000
40
30.0000
1
Sheet 2  18mm Melamine  yield 79%
0
LINE
8
PANELS
10
2525.0000
20
655.0000
11
3289.0000
21
655.0000
0
LINE
8
PANELS
10
3289.0000
20
655.0000
11
3289.0000
21
1215.0000
0
LINE
8
PANELS
10
3289.0000
20
1215.0000
11
2525.0000
21
1215.0000
0
LINE
8
PANELS
10
2525.0000
20
1215.0000
11
2525.0000
21
655.0000
0
TEXT
8
LABELS
10
2533.0000
20
685.0000
40
20.0000
1
Top 764x560
0
LINE
8
PANELS
10
3292.2000
20
675.0000
11
4056.2000
21
675.0000
0
LINE
8
PANELS
10
4056.2000
20
675.0000
11
4056.2000
21
1215.0000
0
LINE
8
PANELS
10
4056.2000
20
1215.0000
11
3292.2000
21
1215.0000
0
LINE
8
PANELS
10
3292.2000
20
1215.0000
11
3292.2000
21
675.0000
0
TEXT
8
LABELS
10
3300.2000
20
705.0000
40
20.0000
1
Shelf 764x540
0
LINE
8
PANELS
10
4059.4000
20
451.0000
11
4599.4000
21
451.0000
0
LINE
8
PANELS
10
4599.4000
20
451.0000
11
4599.4000
21
1215.0000
0
LINE
8
PANELS
10
4599.4000
20
1215.0000
11
4059.4000
21
1215.0000
0
LINE
8
PANELS
10
4059.4000
20
1215.0000
11
4059.4000
21
451.0000
0
TEXT
8
LABELS
10
4067.4000
20
481.0000
40
20.0000
1
Shelf (R) 540x764
0
LINE
8
PANELS
10
3292.2000
20
111.8000
11
4012.2000
21
111.8000
0
LINE
8
PANELS
10
4012.2000
20
111.8000
11
4012.2000
21
671.8000
0
LINE
8
PANELS
10
4012.2000
20
671.8000
11
3292.2000
21
671.8000
0
LINE
8
PANELS
10
3292.2000
20
671.8000
11
3292.2000
21
111.8000
0
TEXT
8
LABELS
10
3300.2000
20
141.8000
40
20.0000
1
Side left 720x560
0
LINE
8
PANELS
10
2525.0000
20
91.8000
11
3245.0000
21
91.8000
0
LINE
8
PANELS
10
3245.0000
20
91.8000
11
3245.0000
21
651.8000
0
LINE
8
PANELS
10
3245.0000
20
651.8000
11
2525.0000
21
651.8000
0
LINE
8
PANELS
10
2525.0000
20
651.8000
11
2525.0000
21
91.8000
0
TEXT
8
LABELS
10
2533.0000
20
121.8000
40
20.0000
1
Side left 720x560
0
LINE
8
PANELS
10
4059.4000
20
63.8000
11
4783.4000
21
63.8000
0
LINE
8
PANELS
10
4783.4000
20
63.8000
11
4783.4000
21
447.8000
0
LINE
8
PANELS
10
4783.4000
20
447.8000
11
4059.4000
21
447.8000
0
LINE
8
PANELS
10
4059.4000
20
447.8000
11
4059.4000
21
63.8000
0
TEXT
8
LABELS
10
4067.4000
20
93.8000
40
20.0000
1
Door left (R) 724x384
0
LINE
8
SHEET
10
5040.0000
20
0.0000
11
7480.0000
21
0.0000
0
LINE
8
SHEET
10
7480.0000
20
0.0000
11
7480.0000
21
1220.0000
0
LINE
8
SHEET
10
7480.0000
20
1220.0000
11
5040.0000
21
1220.0000
0
LINE
8
SHEET
10
5040.0000
20
1220.0000
11
5040.0000
21
0.0000
0
LINE
8
TRIM
10
5045.0000
20
5.0000
11
7475.0000
21
5.0000
0
LINE
8
TRIM
10
7475.0000
20
5.0000
11
7475.0000
21
1215.0000
0
LINE
8
TRIM
10
7475.0000
20
1215.0000
11
5045.0000
21
1215.0000
0
LINE
8
TRIM
10
5045.0000
20
1215.0000
11
5045.0000
21
5.0000
0
TEXT
8
LABELS
10
5060.0000
20
1260.0000
40
30.0000
1
Sheet 3  18mm Melamine  yield 27%
0
LINE
8
PANELS
10
5045.0000
20
655.0000
11
5765.0000
21
655.0000
0
LINE
8
PANELS
10
5765.0000
20
655.0000
11
5765.0000
21
1215.0000
0
LINE
8
PANELS
10
5765.0000
20
1215.0000
11
5045.0000
21
1215.0000
0
LINE
8
PANELS
10
5045.0000
20
1215.0000
11
5045.0000
21
655.0000
0
TEXT
8
LABELS
10
5053.0000
20
685.0000
40
20.0000
1
Side right 720x560
0
LINE
8
PANELS
10
5768.2000
20
655.0000
11
6488.2000
21
655.0000
0
LINE
8
PANELS
10
6488.2000
20
655.0000
11
6488.2000
21
1215.0000
0
LINE
8
PANELS
10
6488.2000
20
1215.0000
11
5768.2000
21
1215.0000
0
LINE
8
PANELS
10
5768.2000
20
1215.0000
11
5768.2000
21
655.0000
0
TEXT
8
LABELS
10
5776.2000
20
685.0000
40
20.0000
1
Side right 720x560
0
ENDSEC
0
EOF
